<?xml version="1.0" standalone="no"?>
<svg width="567.429" height="547.507" viewBox="0 0 567.429 547.507" xmlns="http://www.w3.org/2000/svg">
<title>
../hist_sample.svg
</title>
<desc>
Creator: ROOT Version 6.02/12
CreationDate: Mon Feb 15 11:32:23 2016</desc>
<defs>
</defs>
<rect x="0.5" y="0" width="566.929" height="547.007" fill="white"/>
<rect x="57.1929" y="54.7007" width="453.543" height="437.605" fill="white"/>
<rect x="57.1929" y="54.7007" width="453.543" height="437.605" fill="none" stroke="black"/>
<rect x="57.1929" y="54.7007" width="453.543" height="437.605" fill="white"/>
<rect x="57.1929" y="54.7007" width="453.543" height="437.605" fill="none" stroke="black"/>
<path d="M57.1929,492.306h 453.543" fill="none" stroke="black"/>
<path d="M57.1929,54.7007v 437.605" fill="none" stroke="#cccccc" stroke-dasharray=" 1, 2"/>
<path d="M102.547,54.7007v 437.605" fill="none" stroke="#cccccc" stroke-dasharray=" 1, 2"/>
<path d="M147.902,54.7007v 437.605" fill="none" stroke="#cccccc" stroke-dasharray=" 1, 2"/>
<path d="M193.256,54.7007v 437.605" fill="none" stroke="#cccccc" stroke-dasharray=" 1, 2"/>
<path d="M238.61,54.7007v 437.605" fill="none" stroke="#cccccc" stroke-dasharray=" 1, 2"/>
<path d="M283.965,54.7007v 437.605" fill="none" stroke="#cccccc" stroke-dasharray=" 1, 2"/>
<path d="M329.319,54.7007v 437.605" fill="none" stroke="#cccccc" stroke-dasharray=" 1, 2"/>
<path d="M374.673,54.7007v 437.605" fill="none" stroke="#cccccc" stroke-dasharray=" 1, 2"/>
<path d="M420.028,54.7007v 437.605" fill="none" stroke="#cccccc" stroke-dasharray=" 1, 2"/>
<path d="M465.382,54.7007v 437.605" fill="none" stroke="#cccccc" stroke-dasharray=" 1, 2"/>
<path d="M510.736,54.7007v 437.605" fill="none" stroke="#cccccc" stroke-dasharray=" 1, 2"/>
<path d="M57.1929,54.7007v 437.605" fill="none" stroke="#cccccc" stroke-dasharray=" 1, 2"/>
<path d="M57.1929,54.7007h 453.543" fill="none" stroke="black"/>
<path d="M57.1929,492.306v -437.605" fill="none" stroke="black"/>
<path d="M510.736,492.306h -453.543" fill="none" stroke="#cccccc" stroke-dasharray=" 1, 2"/>
<path d="M510.736,435.949h -453.543" fill="none" stroke="#cccccc" stroke-dasharray=" 1, 2"/>
<path d="M510.736,379.592h -453.543" fill="none" stroke="#cccccc" stroke-dasharray=" 1, 2"/>
<path d="M510.736,323.236h -453.543" fill="none" stroke="#cccccc" stroke-dasharray=" 1, 2"/>
<path d="M510.736,266.879h -453.543" fill="none" stroke="#cccccc" stroke-dasharray=" 1, 2"/>
<path d="M510.736,210.522h -453.543" fill="none" stroke="#cccccc" stroke-dasharray=" 1, 2"/>
<path d="M510.736,154.165h -453.543" fill="none" stroke="#cccccc" stroke-dasharray=" 1, 2"/>
<path d="M510.736,97.8081h -453.543" fill="none" stroke="#cccccc" stroke-dasharray=" 1, 2"/>
<path d="M510.736,97.8081h -453.543" fill="none" stroke="#cccccc" stroke-dasharray=" 1, 2"/>
<path d="M510.736,492.306v -437.605" fill="none" stroke="black"/>
<path d="M57.1929,492.306h 453.543" fill="none" stroke="#000099"/>
<path d="M57.1929,492.306h 453.543" fill="none" stroke="black"/>
<text x="265.181" y="643.772" fill="black" font-size="75.7762" font-family="Helvetica">
x
</text>
<path d="M57.1929,479.178v 13.1282" fill="none" stroke="black"/>
<path d="M68.5315,485.742v 6.56408" fill="none" stroke="black"/>
<path d="M79.8701,485.742v 6.56408" fill="none" stroke="black"/>
<path d="M91.2087,485.742v 6.56408" fill="none" stroke="black"/>
<path d="M102.547,479.178v 13.1282" fill="none" stroke="black"/>
<path d="M113.886,485.742v 6.56408" fill="none" stroke="black"/>
<path d="M125.224,485.742v 6.56408" fill="none" stroke="black"/>
<path d="M136.563,485.742v 6.56408" fill="none" stroke="black"/>
<path d="M147.902,479.178v 13.1282" fill="none" stroke="black"/>
<path d="M159.24,485.742v 6.56408" fill="none" stroke="black"/>
<path d="M170.579,485.742v 6.56408" fill="none" stroke="black"/>
<path d="M181.917,485.742v 6.56408" fill="none" stroke="black"/>
<path d="M193.256,479.178v 13.1282" fill="none" stroke="black"/>
<path d="M204.594,485.742v 6.56408" fill="none" stroke="black"/>
<path d="M215.933,485.742v 6.56408" fill="none" stroke="black"/>
<path d="M227.272,485.742v 6.56408" fill="none" stroke="black"/>
<path d="M238.61,479.178v 13.1282" fill="none" stroke="black"/>
<path d="M249.949,485.742v 6.56408" fill="none" stroke="black"/>
<path d="M261.287,485.742v 6.56408" fill="none" stroke="black"/>
<path d="M272.626,485.742v 6.56408" fill="none" stroke="black"/>
<path d="M283.965,479.178v 13.1282" fill="none" stroke="black"/>
<path d="M295.303,485.742v 6.56408" fill="none" stroke="black"/>
<path d="M306.642,485.742v 6.56408" fill="none" stroke="black"/>
<path d="M317.98,485.742v 6.56408" fill="none" stroke="black"/>
<path d="M329.319,479.178v 13.1282" fill="none" stroke="black"/>
<path d="M340.657,485.742v 6.56408" fill="none" stroke="black"/>
<path d="M351.996,485.742v 6.56408" fill="none" stroke="black"/>
<path d="M363.335,485.742v 6.56408" fill="none" stroke="black"/>
<path d="M374.673,479.178v 13.1282" fill="none" stroke="black"/>
<path d="M386.012,485.742v 6.56408" fill="none" stroke="black"/>
<path d="M397.35,485.742v 6.56408" fill="none" stroke="black"/>
<path d="M408.689,485.742v 6.56408" fill="none" stroke="black"/>
<path d="M420.028,479.178v 13.1282" fill="none" stroke="black"/>
<path d="M431.366,485.742v 6.56408" fill="none" stroke="black"/>
<path d="M442.705,485.742v 6.56408" fill="none" stroke="black"/>
<path d="M454.043,485.742v 6.56408" fill="none" stroke="black"/>
<path d="M465.382,479.178v 13.1282" fill="none" stroke="black"/>
<path d="M476.72,485.742v 6.56408" fill="none" stroke="black"/>
<path d="M488.059,485.742v 6.56408" fill="none" stroke="black"/>
<path d="M499.398,485.742v 6.56408" fill="none" stroke="black"/>
<path d="M510.736,479.178v 13.1282" fill="none" stroke="black"/>
<path d="M57.1929,479.178v 13.1282" fill="none" stroke="black"/>
<text x="57.9898" y="507.732" fill="black" font-size="15.5552" font-family="Helvetica">
1
</text>
<text x="49.4517" y="507.732" fill="black" font-size="15.5552" font-family="Times">
&#8722;
</text>
<text x="95.5574" y="507.732" fill="black" font-size="15.5552" font-family="Helvetica">
0.8
</text>
<text x="87.5885" y="507.732" fill="black" font-size="15.5552" font-family="Times">
&#8722;
</text>
<text x="140.525" y="507.732" fill="black" font-size="15.5552" font-family="Helvetica">
0.6
</text>
<text x="132.556" y="507.732" fill="black" font-size="15.5552" font-family="Times">
&#8722;
</text>
<text x="186.061" y="507.732" fill="black" font-size="15.5552" font-family="Helvetica">
0.4
</text>
<text x="178.092" y="507.732" fill="black" font-size="15.5552" font-family="Times">
&#8722;
</text>
<text x="231.598" y="507.732" fill="black" font-size="15.5552" font-family="Helvetica">
0.2
</text>
<text x="223.629" y="507.732" fill="black" font-size="15.5552" font-family="Times">
&#8722;
</text>
<text x="279.98" y="507.732" fill="black" font-size="15.5552" font-family="Helvetica">
0
</text>
<text x="318.117" y="507.732" fill="black" font-size="15.5552" font-family="Helvetica">
0.2
</text>
<text x="363.653" y="507.732" fill="black" font-size="15.5552" font-family="Helvetica">
0.4
</text>
<text x="409.19" y="507.732" fill="black" font-size="15.5552" font-family="Helvetica">
0.6
</text>
<text x="454.157" y="507.732" fill="black" font-size="15.5552" font-family="Helvetica">
0.8
</text>
<text x="507.663" y="507.732" fill="black" font-size="15.5552" font-family="Helvetica">
1
</text>
<path d="M57.1929,54.7007h 453.543" fill="none" stroke="black"/>
<path d="M57.1929,67.8289v -13.1282" fill="none" stroke="black"/>
<path d="M68.5315,61.2648v -6.56408" fill="none" stroke="black"/>
<path d="M79.8701,61.2648v -6.56408" fill="none" stroke="black"/>
<path d="M91.2087,61.2648v -6.56408" fill="none" stroke="black"/>
<path d="M102.547,67.8289v -13.1282" fill="none" stroke="black"/>
<path d="M113.886,61.2648v -6.56408" fill="none" stroke="black"/>
<path d="M125.224,61.2648v -6.56408" fill="none" stroke="black"/>
<path d="M136.563,61.2648v -6.56408" fill="none" stroke="black"/>
<path d="M147.902,67.8289v -13.1282" fill="none" stroke="black"/>
<path d="M159.24,61.2648v -6.56408" fill="none" stroke="black"/>
<path d="M170.579,61.2648v -6.56408" fill="none" stroke="black"/>
<path d="M181.917,61.2648v -6.56408" fill="none" stroke="black"/>
<path d="M193.256,67.8289v -13.1282" fill="none" stroke="black"/>
<path d="M204.594,61.2648v -6.56408" fill="none" stroke="black"/>
<path d="M215.933,61.2648v -6.56408" fill="none" stroke="black"/>
<path d="M227.272,61.2648v -6.56408" fill="none" stroke="black"/>
<path d="M238.61,67.8289v -13.1282" fill="none" stroke="black"/>
<path d="M249.949,61.2648v -6.56408" fill="none" stroke="black"/>
<path d="M261.287,61.2648v -6.56408" fill="none" stroke="black"/>
<path d="M272.626,61.2648v -6.56408" fill="none" stroke="black"/>
<path d="M283.965,67.8289v -13.1282" fill="none" stroke="black"/>
<path d="M295.303,61.2648v -6.56408" fill="none" stroke="black"/>
<path d="M306.642,61.2648v -6.56408" fill="none" stroke="black"/>
<path d="M317.98,61.2648v -6.56408" fill="none" stroke="black"/>
<path d="M329.319,67.8289v -13.1282" fill="none" stroke="black"/>
<path d="M340.657,61.2648v -6.56408" fill="none" stroke="black"/>
<path d="M351.996,61.2648v -6.56408" fill="none" stroke="black"/>
<path d="M363.335,61.2648v -6.56408" fill="none" stroke="black"/>
<path d="M374.673,67.8289v -13.1282" fill="none" stroke="black"/>
<path d="M386.012,61.2648v -6.56408" fill="none" stroke="black"/>
<path d="M397.35,61.2648v -6.56408" fill="none" stroke="black"/>
<path d="M408.689,61.2648v -6.56408" fill="none" stroke="black"/>
<path d="M420.028,67.8289v -13.1282" fill="none" stroke="black"/>
<path d="M431.366,61.2648v -6.56408" fill="none" stroke="black"/>
<path d="M442.705,61.2648v -6.56408" fill="none" stroke="black"/>
<path d="M454.043,61.2648v -6.56408" fill="none" stroke="black"/>
<path d="M465.382,67.8289v -13.1282" fill="none" stroke="black"/>
<path d="M476.72,61.2648v -6.56408" fill="none" stroke="black"/>
<path d="M488.059,61.2648v -6.56408" fill="none" stroke="black"/>
<path d="M499.398,61.2648v -6.56408" fill="none" stroke="black"/>
<path d="M510.736,67.8289v -13.1282" fill="none" stroke="black"/>
<path d="M57.1929,67.8289v -13.1282" fill="none" stroke="black"/>
<path d="M57.1929,492.306v -437.605" fill="none" stroke="black"/>
<g transform="rotate(-90,-770.774,395.598)">
<text x="-770.774" y="395.598" fill="black" font-size="502.341" font-family="Helvetica">
y
</text>
</g>
<path d="M70.7992,492.306h -13.6063" fill="none" stroke="black"/>
<path d="M63.9961,478.217h -6.80315" fill="none" stroke="black"/>
<path d="M63.9961,464.128h -6.80315" fill="none" stroke="black"/>
<path d="M63.9961,450.039h -6.80315" fill="none" stroke="black"/>
<path d="M70.7992,435.949h -13.6063" fill="none" stroke="black"/>
<path d="M63.9961,421.86h -6.80315" fill="none" stroke="black"/>
<path d="M63.9961,407.771h -6.80315" fill="none" stroke="black"/>
<path d="M63.9961,393.682h -6.80315" fill="none" stroke="black"/>
<path d="M70.7992,379.592h -13.6063" fill="none" stroke="black"/>
<path d="M63.9961,365.503h -6.80315" fill="none" stroke="black"/>
<path d="M63.9961,351.414h -6.80315" fill="none" stroke="black"/>
<path d="M63.9961,337.325h -6.80315" fill="none" stroke="black"/>
<path d="M70.7992,323.236h -13.6063" fill="none" stroke="black"/>
<path d="M63.9961,309.146h -6.80315" fill="none" stroke="black"/>
<path d="M63.9961,295.057h -6.80315" fill="none" stroke="black"/>
<path d="M63.9961,280.968h -6.80315" fill="none" stroke="black"/>
<path d="M70.7992,266.879h -13.6063" fill="none" stroke="black"/>
<path d="M63.9961,252.789h -6.80315" fill="none" stroke="black"/>
<path d="M63.9961,238.7h -6.80315" fill="none" stroke="black"/>
<path d="M63.9961,224.611h -6.80315" fill="none" stroke="black"/>
<path d="M70.7992,210.522h -13.6063" fill="none" stroke="black"/>
<path d="M63.9961,196.433h -6.80315" fill="none" stroke="black"/>
<path d="M63.9961,182.343h -6.80315" fill="none" stroke="black"/>
<path d="M63.9961,168.254h -6.80315" fill="none" stroke="black"/>
<path d="M70.7992,154.165h -13.6063" fill="none" stroke="black"/>
<path d="M63.9961,140.076h -6.80315" fill="none" stroke="black"/>
<path d="M63.9961,125.987h -6.80315" fill="none" stroke="black"/>
<path d="M63.9961,111.897h -6.80315" fill="none" stroke="black"/>
<path d="M70.7992,97.8081h -13.6063" fill="none" stroke="black"/>
<path d="M70.7992,97.8081h -13.6063" fill="none" stroke="black"/>
<path d="M63.9961,83.7188h -6.80315" fill="none" stroke="black"/>
<path d="M63.9961,69.6296h -6.80315" fill="none" stroke="black"/>
<path d="M63.9961,55.5404h -6.80315" fill="none" stroke="black"/>
<text x="46.0365" y="497.486" fill="black" font-size="15.5552" font-family="Helvetica">
0
</text>
<text x="20.4222" y="441.135" fill="black" font-size="15.5552" font-family="Helvetica">
2000
</text>
<text x="20.4222" y="384.783" fill="black" font-size="15.5552" font-family="Helvetica">
4000
</text>
<text x="20.4222" y="328.432" fill="black" font-size="15.5552" font-family="Helvetica">
6000
</text>
<text x="20.4222" y="272.08" fill="black" font-size="15.5552" font-family="Helvetica">
8000
</text>
<text x="11.8841" y="215.729" fill="black" font-size="15.5552" font-family="Helvetica">
10000
</text>
<text x="11.8841" y="159.378" fill="black" font-size="15.5552" font-family="Helvetica">
12000
</text>
<text x="11.8841" y="103.026" fill="black" font-size="15.5552" font-family="Helvetica">
14000
</text>
<path d="M510.736,492.306v -437.605" fill="none" stroke="black"/>
<path d="M497.13,492.306h 13.6063" fill="none" stroke="black"/>
<path d="M503.933,478.217h 6.80315" fill="none" stroke="black"/>
<path d="M503.933,464.128h 6.80315" fill="none" stroke="black"/>
<path d="M503.933,450.039h 6.80315" fill="none" stroke="black"/>
<path d="M497.13,435.949h 13.6063" fill="none" stroke="black"/>
<path d="M503.933,421.86h 6.80315" fill="none" stroke="black"/>
<path d="M503.933,407.771h 6.80315" fill="none" stroke="black"/>
<path d="M503.933,393.682h 6.80315" fill="none" stroke="black"/>
<path d="M497.13,379.592h 13.6063" fill="none" stroke="black"/>
<path d="M503.933,365.503h 6.80315" fill="none" stroke="black"/>
<path d="M503.933,351.414h 6.80315" fill="none" stroke="black"/>
<path d="M503.933,337.325h 6.80315" fill="none" stroke="black"/>
<path d="M497.13,323.236h 13.6063" fill="none" stroke="black"/>
<path d="M503.933,309.146h 6.80315" fill="none" stroke="black"/>
<path d="M503.933,295.057h 6.80315" fill="none" stroke="black"/>
<path d="M503.933,280.968h 6.80315" fill="none" stroke="black"/>
<path d="M497.13,266.879h 13.6063" fill="none" stroke="black"/>
<path d="M503.933,252.789h 6.80315" fill="none" stroke="black"/>
<path d="M503.933,238.7h 6.80315" fill="none" stroke="black"/>
<path d="M503.933,224.611h 6.80315" fill="none" stroke="black"/>
<path d="M497.13,210.522h 13.6063" fill="none" stroke="black"/>
<path d="M503.933,196.433h 6.80315" fill="none" stroke="black"/>
<path d="M503.933,182.343h 6.80315" fill="none" stroke="black"/>
<path d="M503.933,168.254h 6.80315" fill="none" stroke="black"/>
<path d="M497.13,154.165h 13.6063" fill="none" stroke="black"/>
<path d="M503.933,140.076h 6.80315" fill="none" stroke="black"/>
<path d="M503.933,125.987h 6.80315" fill="none" stroke="black"/>
<path d="M503.933,111.897h 6.80315" fill="none" stroke="black"/>
<path d="M497.13,97.8081h 13.6063" fill="none" stroke="black"/>
<path d="M497.13,97.8081h 13.6063" fill="none" stroke="black"/>
<path d="M503.933,83.7188h 6.80315" fill="none" stroke="black"/>
<path d="M503.933,69.6296h 6.80315" fill="none" stroke="black"/>
<path d="M503.933,55.5404h 6.80315" fill="none" stroke="black"/>
<path d="M57.1929,291.676h 0.453543v 2.84602h 0.453543v -3.60684h 0.453543v 0.197249h 0.453543v 0.479033h 0.453543v -0.309963h 0.453543v -2.25428h 0.453543v 1.40892h 0.453543v 1.35257h 0.453543v -6.19926h 0.453543v 5.66387h 0.453543v -3.60684h
 0.453543v -0.0845353h 0.453543v -2.78967h 0.453543v 0.169071h 0.453543v 2.4797h 0.453543v -7.04461h 0.453543v 5.66387h 0.453543v 2.62059h 0.453543v -5.15665h 0.453543v -3.63502h 0.453543v 3.88862h 0.453543v -2.45152h 0.453543v 1.12714h 0.453543v
 1.94431h 0.453543v -1.4371h 0.453543v -2.05703h 0.453543v -2.19792h 0.453543v 4.93123h 0.453543v -6.62193h 0.453543v 1.12714h 0.453543v -0.817175h 0.453543v 4.00134h 0.453543v -3.86045h 0.453543v 3.74773h 0.453543v -1.29621h 0.453543v -3.07145h
 0.453543v 5.01576h 0.453543v -1.54981h 0.453543v -2.00067h 0.453543v -1.38074h 0.453543v -0.394498h 0.453543v 1.32439h 0.453543v -6.28379h 0.453543v 2.42335h 0.453543v -0.0281784h 0.453543v -2.14156h 0.453543v -0.140892h 0.453543v 5.80476h 0.453543v
 -8.03086h 0.453543v 1.63435h 0.453543v 0.309963h 0.453543v 1.46528h 0.453543v 0.929888h 0.453543v -2.19792h 0.453543v -2.02885h 0.453543v 0.450855h 0.453543v -5.32572h 0.453543v 8.25628h 0.453543v -2.0852h 0.453543v -2.73331h 0.453543v -7.41093h
 0.453543v 7.01643h 0.453543v 4.02952h 0.453543v -3.86045h 0.453543v 0.507212h 0.453543v -4.22677h 0.453543v 4.79033h 0.453543v -0.845353h 0.453543v 0.253606h 0.453543v -3.88862h 0.453543v -1.01442h 0.453543v 2.31063h 0.453543v -4.67762h 0.453543v
 4.84669h 0.453543v -5.77658h 0.453543v -2.67695h 0.453543v 5.88929h 0.453543v -4.19859h 0.453543v 3.21234h 0.453543v 0.394498h 0.453543v -0.676283h 0.453543v -2.36699h 0.453543v -6.1429h 0.453543v 5.46662h 0.453543v 2.50788h 0.453543v -2.81784h
 0.453543v -2.33881h 0.453543v 0.958067h 0.453543v 0.986245h 0.453543v -7.32639h 0.453543v 6.05836h 0.453543v 1.26803h 0.453543v -3.77591h 0.453543v 5.1003h 0.453543v -6.19926h 0.453543v -0.140892h 0.453543v 0.929888h 0.453543v 1.74706h 0.453543v
 1.32439h 0.453543v -3.2687h 0.453543v -1.66253h 0.453543v -1.88796h 0.453543v 5.52297h 0.453543v -5.86111h 0.453543v 1.07078h 0.453543v -1.80342h 0.453543v -4.9594h 0.453543v 3.60684h 0.453543v 2.42335h 0.453543v -2.11338h 0.453543v -6.11472h
 0.453543v 4.7058h 0.453543v 2.11338h 0.453543v 3.46595h 0.453543v -7.21368h 0.453543v -0.36632h 0.453543v 0.422677h 0.453543v 1.38074h 0.453543v 1.54981h 0.453543v 5.46662h 0.453543v -6.5374h 0.453543v -0.112714h 0.453543v -5.94565h 0.453543v
 2.31063h 0.453543v 0.563569h 0.453543v 0.140892h 0.453543v -2.28245h 0.453543v 3.94498h 0.453543v -2.50788h 0.453543v -5.15665h 0.453543v 2.0852h 0.453543v 4.19859h 0.453543v -0.591747h 0.453543v -2.2261h 0.453543v 0.394498h 0.453543v -3.38141h
 0.453543v 1.0426h 0.453543v -1.71888h 0.453543v 0.36632h 0.453543v 1.07078h 0.453543v -0.619926h 0.453543v 0.648104h 0.453543v -1.49346h 0.453543v -0.169071h 0.453543v -2.0852h 0.453543v -5.46662h 0.453543v 3.09963h 0.453543v -3.63502h 0.453543v
 2.98691h 0.453543v 6.03019h 0.453543v -1.21167h 0.453543v -3.57866h 0.453543v -1.0426h 0.453543v -3.09963h 0.453543v 9.60885h 0.453543v -11.4686h 0.453543v 6.45286h 0.453543v 0.958067h 0.453543v -5.4948h 0.453543v 1.40892h 0.453543v -0.648104h
 0.453543v 4.56491h 0.453543v -4.48037h 0.453543v 0.479033h 0.453543v -1.88796h 0.453543v 4.11405h 0.453543v -6.90372h 0.453543v 0.169071h 0.453543v 5.1003h 0.453543v -4.42401h 0.453543v -2.19792h 0.453543v -0.169071h 0.453543v 1.80342h 0.453543v
 -2.70513h 0.453543v -2.67695h 0.453543v 4.93123h 0.453543v -2.25428h 0.453543v 0.648104h 0.453543v -5.7484h 0.453543v 6.25561h 0.453543v -6.76283h 0.453543v 6.56558h 0.453543v -1.77524h 0.453543v -0.986245h 0.453543v 4.17041h 0.453543v -3.80409h
 0.453543v -1.71888h 0.453543v -3.55048h 0.453543v 1.91613h 0.453543v -0.986245h 0.453543v -0.648104h 0.453543v 2.62059h 0.453543v -4.50855h 0.453543v 6.28379h 0.453543v -3.57866h 0.453543v -1.77524h 0.453543v 0.0845353h 0.453543v -0.704461h
 0.453543v 1.91613h 0.453543v -3.55048h 0.453543v 5.77658h 0.453543v -5.94565h 0.453543v 2.36699h 0.453543v 0.760818h 0.453543v -4.11405h 0.453543v 5.24119h 0.453543v -7.55182h 0.453543v 6.45286h 0.453543v -1.80342h 0.453543v -2.64877h 0.453543v
 -2.98691h 0.453543v 4.36766h 0.453543v -7.43911h 0.453543v 7.21368h 0.453543v 0.140892h 0.453543v 0.958067h 0.453543v -5.66387h 0.453543v 1.60617h 0.453543v 2.31063h 0.453543v -1.91613h 0.453543v -2.90238h 0.453543v 2.16974h 0.453543v 3.40959h
 0.453543v -9.04528h 0.453543v -2.0852h 0.453543v 7.01643h 0.453543v 5.72022h 0.453543v -2.28245h 0.453543v -7.55182h 0.453543v 0.479033h 0.453543v 6.98825h 0.453543v -3.60684h 0.453543v -4.08587h 0.453543v 2.00067h 0.453543v -2.70513h 0.453543v
 -0.986245h 0.453543v 0.90171h 0.453543v 3.2687h 0.453543v -1.94431h 0.453543v 0.0563569h 0.453543v -1.40892h 0.453543v -1.4371h 0.453543v 2.4797h 0.453543v -3.6632h 0.453543v 5.21301h 0.453543v -3.09963h 0.453543v 1.88796h 0.453543v -5.94565h
 0.453543v 0.197249h 0.453543v -0.986245h 0.453543v 2.28245h 0.453543v -1.12714h 0.453543v 1.63435h 0.453543v 0.0563569h 0.453543v -1.57799h 0.453543v -1.01442h 0.453543v -0.225428h 0.453543v 3.24052h 0.453543v -9.94699h 0.453543v 5.26937h 0.453543v
 -2.76149h 0.453543v 4.05769h 0.453543v 2.19792h 0.453543v -7.80543h 0.453543v 4.00134h 0.453543v -1.54981h 0.453543v -2.4797h 0.453543v -3.15599h 0.453543v 1.57799h 0.453543v 4.7058h 0.453543v -4.48037h 0.453543v 1.52164h 0.453543v -1.09896h
 0.453543v 3.2687h 0.453543v -2.81784h 0.453543v 0.338141h 0.453543v -1.77524h 0.453543v 4.05769h 0.453543v -4.87487h 0.453543v 1.49346h 0.453543v 5.18483h 0.453543v -6.45286h 0.453543v -0.140892h 0.453543v 1.88796h 0.453543v -1.54981h 0.453543v
 -6.22743h 0.453543v 6.34015h 0.453543v -3.2687h 0.453543v 2.62059h 0.453543v -3.29688h 0.453543v 1.74706h 0.453543v -0.732639h 0.453543v 1.85978h 0.453543v -3.38141h 0.453543v 0.0845353h 0.453543v 4.33948h 0.453543v -6.05836h 0.453543v -2.25428h
 0.453543v 8.03086h 0.453543v 1.38074h 0.453543v -11.215h 0.453543v 7.35457h 0.453543v -2.05703h 0.453543v -1.0426h 0.453543v -1.07078h 0.453543v -5.46662h 0.453543v 7.35457h 0.453543v -1.21167h 0.453543v 3.94498h 0.453543v -5.3539h 0.453543v
 -3.40959h 0.453543v 1.69071h 0.453543v 1.69071h 0.453543v -3.49413h 0.453543v -0.394498h 0.453543v 7.1855h 0.453543v -4.28312h 0.453543v 3.35323h 0.453543v -4.73398h 0.453543v 3.12781h 0.453543v -3.60684h 0.453543v -1.40892h 0.453543v 1.91613h
 0.453543v -1.46528h 0.453543v 1.32439h 0.453543v 1.54981h 0.453543v 2.93056h 0.453543v -3.49413h 0.453543v -5.15665h 0.453543v 5.41026h 0.453543v -3.40959h 0.453543v 3.04327h 0.453543v 1.52164h 0.453543v -6.76283h 0.453543v 3.38141h 0.453543v
 0.225428h 0.453543v 1.0426h 0.453543v -1.18349h 0.453543v -4.3113h 0.453543v 4.39584h 0.453543v -6.70647h 0.453543v 2.73331h 0.453543v -0.169071h 0.453543v 3.49413h 0.453543v 0.169071h 0.453543v -1.52164h 0.453543v -1.46528h 0.453543v 1.4371h
 0.453543v -0.619926h 0.453543v 2.2261h 0.453543v -0.732639h 0.453543v -6.31197h 0.453543v 0.619926h 0.453543v 2.73331h 0.453543v 2.14156h 0.453543v -0.619926h 0.453543v 1.18349h 0.453543v 5.18483h 0.453543v -5.63569h 0.453543v -2.53606h 0.453543v
 -6.00201h 0.453543v 8.70714h 0.453543v 0.0281784h 0.453543v -3.69138h 0.453543v -1.57799h 0.453543v -5.15665h 0.453543v 3.46595h 0.453543v -2.56424h 0.453543v 7.91814h 0.453543v -4.73398h 0.453543v -0.0281784h 0.453543v 2.00067h 0.453543v -7.72089h
 0.453543v 0.591747h 0.453543v 8.39717h 0.453543v -4.17041h 0.453543v 1.01442h 0.453543v 1.0426h 0.453543v -0.36632h 0.453543v -0.817175h 0.453543v -4.81851h 0.453543v 2.90238h 0.453543v 6.87554h 0.453543v -1.85978h 0.453543v -3.2687h 0.453543v
 -6.00201h 0.453543v 3.74773h 0.453543v -0.0281784h 0.453543v 2.11338h 0.453543v -2.95874h 0.453543v -0.0563569h 0.453543v 1.29621h 0.453543v 4.42401h 0.453543v -3.9168h 0.453543v -0.112714h 0.453543v -4.56491h 0.453543v 6.00201h 0.453543v -5.04394h
 0.453543v -1.07078h 0.453543v -0.929888h 0.453543v 8.25628h 0.453543v -3.9168h 0.453543v -2.0852h 0.453543v 0.338141h 0.453543v -4.25494h 0.453543v 8.98892h 0.453543v -9.07346h 0.453543v 4.33948h 0.453543v -0.0563569h 0.453543v -2.90238h 0.453543v
 5.15665h 0.453543v -1.8316h 0.453543v -0.479033h 0.453543v 0.732639h 0.453543v -5.77658h 0.453543v 4.39584h 0.453543v -3.38141h 0.453543v 6.42468h 0.453543v -0.619926h 0.453543v -2.62059h 0.453543v 4.05769h 0.453543v -2.16974h 0.453543v -2.64877h
 0.453543v 2.31063h 0.453543v -0.676283h 0.453543v -3.80409h 0.453543v -0.507212h 0.453543v 3.12781h 0.453543v 4.05769h 0.453543v -1.54981h 0.453543v -0.986245h 0.453543v -1.40892h 0.453543v 7.01643h 0.453543v -8.98892h 0.453543v 4.64944h 0.453543v
 -5.69204h 0.453543v 0.507212h 0.453543v 5.7484h 0.453543v -3.49413h 0.453543v -1.80342h 0.453543v 0.197249h 0.453543v 1.26803h 0.453543v 1.66253h 0.453543v -7.12914h 0.453543v 3.5223h 0.453543v -1.46528h 0.453543v 1.71888h 0.453543v -2.8742h
 0.453543v 3.9168h 0.453543v -5.43844h 0.453543v 5.32572h 0.453543v -1.46528h 0.453543v -1.71888h 0.453543v 3.12781h 0.453543v -3.12781h 0.453543v -3.74773h 0.453543v 4.19859h 0.453543v 5.18483h 0.453543v -2.05703h 0.453543v -2.02885h 0.453543v
 -2.84602h 0.453543v 6.50922h 0.453543v -1.0426h 0.453543v 0.479033h 0.453543v -6.17108h 0.453543v 8.59442h 0.453543v -4.73398h 0.453543v 0.422677h 0.453543v -2.90238h 0.453543v 1.69071h 0.453543v 2.93056h 0.453543v -5.07212h 0.453543v 2.70513h
 0.453543v -3.60684h 0.453543v 3.77591h 0.453543v -1.23985h 0.453543v 3.43777h 0.453543v -3.24052h 0.453543v -1.23985h 0.453543v 2.31063h 0.453543v 1.60617h 0.453543v -3.24052h 0.453543v -2.14156h 0.453543v 5.77658h 0.453543v -1.69071h 0.453543v
 -2.0852h 0.453543v 4.19859h 0.453543v -5.94565h 0.453543v 2.45152h 0.453543v 4.3113h 0.453543v -8.05903h 0.453543v 6.03019h 0.453543v -1.07078h 0.453543v -5.18483h 0.453543v 5.88929h 0.453543v 0.676283h 0.453543v -4.79033h 0.453543v -2.50788h
 0.453543v 3.29688h 0.453543v 0.676283h 0.453543v 0.0563569h 0.453543v -3.83227h 0.453543v -3.32506h 0.453543v 8.25628h 0.453543v 1.63435h 0.453543v -3.5223h 0.453543v 1.91613h 0.453543v -7.72089h 0.453543v 10.4824h 0.453543v -1.12714h 0.453543v
 -6.34015h 0.453543v 4.53673h 0.453543v -2.33881h 0.453543v 9.32706h 0.453543v -12.3703h 0.453543v 0.0845353h 0.453543v 0.422677h 0.453543v 8.2281h 0.453543v 2.11338h 0.453543v -8.67896h 0.453543v 0.591747h 0.453543v 4.84669h 0.453543v -3.12781h
 0.453543v 3.74773h 0.453543v -1.38074h 0.453543v -0.732639h 0.453543v -4.53673h 0.453543v 1.35257h 0.453543v -1.91613h 0.453543v 7.46729h 0.453543v 3.09963h 0.453543v -5.88929h 0.453543v -4.84669h 0.453543v -0.676283h 0.453543v 2.02885h 0.453543v
 3.49413h 0.453543v -2.42335h 0.453543v 4.87487h 0.453543v -4.90305h 0.453543v 3.40959h 0.453543v 1.91613h 0.453543v 1.74706h 0.453543v -2.56424h 0.453543v 3.71955h 0.453543v -4.11405h 0.453543v -3.86045h 0.453543v 2.81784h 0.453543v 1.66253h
 0.453543v 1.8316h 0.453543v -4.3113h 0.453543v 13.1875h 0.453543v -9.49613h 0.453543v -2.28245h 0.453543v 2.25428h 0.453543v -0.704461h 0.453543v -3.18416h 0.453543v 0.873532h 0.453543v 6.65011h 0.453543v -8.65078h 0.453543v 2.42335h 0.453543v
 2.31063h 0.453543v -5.88929h 0.453543v 6.1429h 0.453543v -3.49413h 0.453543v 4.93123h 0.453543v -2.53606h 0.453543v 0.309963h 0.453543v 0.958067h 0.453543v -3.6632h 0.453543v -2.0852h 0.453543v 0.225428h 0.453543v 6.76283h 0.453543v -1.4371h
 0.453543v -6.36833h 0.453543v 6.73465h 0.453543v -5.21301h 0.453543v 5.63569h 0.453543v 0.197249h 0.453543v -2.8742h 0.453543v -1.97249h 0.453543v 3.32506h 0.453543v -0.479033h 0.453543v 0.140892h 0.453543v -0.338141h 0.453543v 3.80409h 0.453543v
 0.53539h 0.453543v 1.80342h 0.453543v -4.33948h 0.453543v -1.4371h 0.453543v 6.25561h 0.453543v -8.56625h 0.453543v 8.65078h 0.453543v -7.58h 0.453543v 2.19792h 0.453543v 1.0426h 0.453543v -1.09896h 0.453543v -0.0845353h 0.453543v 5.94565h 0.453543v
 -7.35457h 0.453543v 3.77591h 0.453543v 8.369h 0.453543v -7.9745h 0.453543v 1.40892h 0.453543v -0.507212h 0.453543v -4.7058h 0.453543v 4.59309h 0.453543v -3.69138h 0.453543v 2.56424h 0.453543v 1.88796h 0.453543v 1.54981h 0.453543v 0.36632h 0.453543v
 0.929888h 0.453543v -9.94699h 0.453543v 12.0604h 0.453543v -2.81784h 0.453543v 0.704461h 0.453543v -1.46528h 0.453543v -2.16974h 0.453543v -1.0426h 0.453543v 0.619926h 0.453543v 3.88862h 0.453543v -4.25494h 0.453543v 7.01643h 0.453543v -6.03019h
 0.453543v 2.14156h 0.453543v 0.197249h 0.453543v -4.73398h 0.453543v 6.50922h 0.453543v 0.479033h 0.453543v -1.32439h 0.453543v -5.60751h 0.453543v 3.94498h 0.453543v 5.21301h 0.453543v -7.77725h 0.453543v 5.60751h 0.453543v 2.33881h 0.453543v
 -4.73398h 0.453543v 5.1003h 0.453543v -3.40959h 0.453543v 3.88862h 0.453543v -0.0281784h 0.453543v -2.78967h 0.453543v -6.45286h 0.453543v 6.45286h 0.453543v 2.78967h 0.453543v -8.67896h 0.453543v 11.8068h 0.453543v -3.60684h 0.453543v -6.05836h
 0.453543v 0.563569h 0.453543v 4.45219h 0.453543v -6.9319h 0.453543v 8.56625h 0.453543v 0.338141h 0.453543v -3.07145h 0.453543v -0.563569h 0.453543v 5.01576h 0.453543v 2.36699h 0.453543v -3.77591h 0.453543v 0.929888h 0.453543v -2.16974h 0.453543v
 1.23985h 0.453543v -0.732639h 0.453543v 1.21167h 0.453543v -1.63435h 0.453543v 6.25561h 0.453543v -4.87487h 0.453543v 1.40892h 0.453543v -4.05769h 0.453543v 1.80342h 0.453543v -0.0281784h 0.453543v 2.42335h 0.453543v 3.43777h 0.453543v -3.88862h
 0.453543v 2.90238h 0.453543v 2.53606h 0.453543v -3.43777h 0.453543v -5.91747h 0.453543v 5.29755h 0.453543v 1.32439h 0.453543v -2.76149h 0.453543v 2.25428h 0.453543v 2.56424h 0.453543v -4.17041h 0.453543v 9.77792h 0.453543v -2.59242h 0.453543v
 -0.648104h 0.453543v -3.74773h 0.453543v 0.479033h 0.453543v 1.09896h 0.453543v -1.69071h 0.453543v 7.83361h 0.453543v -10.2288h 0.453543v 3.21234h 0.453543v 5.38208h 0.453543v -5.21301h 0.453543v -2.14156h 0.453543v 7.38275h 0.453543v -0.479033h
 0.453543v 1.57799h 0.453543v -2.81784h 0.453543v 3.57866h 0.453543v -2.45152h 0.453543v 3.01509h 0.453543v -5.21301h 0.453543v 4.56491h 0.453543v -7.58h 0.453543v 9.27071h 0.453543v -3.35323h 0.453543v 4.90305h 0.453543v -9.74974h 0.453543v 4.64944h
 0.453543v 0.479033h 0.453543v 1.40892h 0.453543v -1.12714h 0.453543v 1.15532h 0.453543v -5.83294h 0.453543v -0.0563569h 0.453543v 6.05836h 0.453543v 4.7058h 0.453543v -4.93123h 0.453543v 1.07078h 0.453543v 0.845353h 0.453543v -1.07078h 0.453543v
 0.788996h 0.453543v 2.19792h 0.453543v 1.74706h 0.453543v -6.42468h 0.453543v 3.55048h 0.453543v 2.56424h 0.453543v 2.50788h 0.453543v -1.66253h 0.453543v -1.97249h 0.453543v -2.95874h 0.453543v 3.2687h 0.453543v 6.70647h 0.453543v -7.15732h
 0.453543v -1.18349h 0.453543v 4.33948h 0.453543v -2.14156h 0.453543v 0.704461h 0.453543v 1.23985h 0.453543v -0.479033h 0.453543v 4.67762h 0.453543v -3.40959h 0.453543v 1.80342h 0.453543v 3.74773h 0.453543v -0.197249h 0.453543v -3.15599h 0.453543v
 -2.56424h 0.453543v 4.02952h 0.453543v -1.21167h 0.453543v 3.24052h 0.453543v -1.12714h 0.453543v 0.0845353h 0.453543v 0.648104h 0.453543v -0.140892h 0.453543v -0.563569h 0.453543v -1.01442h 0.453543v 1.63435h 0.453543v 4.3113h 0.453543v -7.01643h
 0.453543v 5.4948h 0.453543v -4.93123h 0.453543v 8.31264h 0.453543v -5.21301h 0.453543v -1.69071h 0.453543v 1.21167h 0.453543v 2.98691h 0.453543v -2.05703h 0.453543v 1.32439h 0.453543v 10.9332h 0.453543v -10.4824h 0.453543v -0.169071h 0.453543v
 7.04461h 0.453543v -6.34015h 0.453543v 2.05703h 0.453543v 3.97316h 0.453543v -10.4824h 0.453543v 8.65078h 0.453543v -2.8742h 0.453543v -5.94565h 0.453543v 6.84736h 0.453543v 5.12848h 0.453543v 0.788996h 0.453543v -7.32639h 0.453543v 2.36699h
 0.453543v -0.0563569h 0.453543v 0.53539h 0.453543v 5.91747h 0.453543v -4.9594h 0.453543v 0.563569h 0.453543v 1.71888h 0.453543v 4.28312h 0.453543v -2.8742h 0.453543v -3.38141h 0.453543v 5.7484h 0.453543v 2.81784h 0.453543v -5.07212h 0.453543v
 -1.15532h 0.453543v -2.02885h 0.453543v 2.81784h 0.453543v 1.85978h 0.453543v 2.81784h 0.453543v 3.74773h 0.453543v -8.59442h 0.453543v 6.98825h 0.453543v -3.01509h 0.453543v -3.01509h 0.453543v 2.64877h 0.453543v 2.81784h 0.453543v -6.22743h
 0.453543v -0.309963h 0.453543v 4.56491h 0.453543v 4.33948h 0.453543v 0.450855h 0.453543v 2.56424h 0.453543v -9.55249h 0.453543v 2.95874h 0.453543v 4.36766h 0.453543v -2.56424h 0.453543v 5.12848h 0.453543v -7.1855h 0.453543v 5.15665h 0.453543v
 -6.5374h 0.453543v 2.73331h 0.453543v 4.73398h 0.453543v -0.281784h 0.453543v -3.01509h 0.453543v 6.39651h 0.453543v -0.507212h 0.453543v -1.88796h 0.453543v 0.845353h 0.453543v 3.32506h 0.453543v -5.46662h 0.453543v 3.43777h 0.453543v -2.31063h
 0.453543v 0.704461h 0.453543v 3.38141h 0.453543v -4.98758h 0.453543v 4.3113h 0.453543v 3.6632h 0.453543v -3.86045h 0.453543v 2.2261h 0.453543v 0.197249h 0.453543v 2.02885h 0.453543v -2.14156h 0.453543v 2.02885h 0.453543v 2.36699h 0.453543v -2.62059h
 0.453543v 2.42335h 0.453543v -5.1003h 0.453543v 4.67762h 0.453543v -0.197249h 0.453543v -6.17108h 0.453543v 9.83428h 0.453543v -3.9168h 0.453543v -2.45152h 0.453543v 6.65011h 0.453543v -3.32506h 0.453543v -0.648104h 0.453543v -1.71888h 0.453543v
 9.10164h 0.453543v 1.4371h 0.453543v -5.12848h 0.453543v 0.450855h 0.453543v 3.63502h 0.453543v -3.04327h 0.453543v -1.77524h 0.453543v 0.394498h 0.453543v 1.77524h 0.453543v 2.02885h 0.453543v -0.929888h 0.453543v -0.253606h 0.453543v -1.15532h
 0.453543v 4.90305h 0.453543v -2.62059h 0.453543v 4.79033h 0.453543v -1.23985h 0.453543v -2.02885h 0.453543v -0.817175h 0.453543v -4.39584h 0.453543v 7.07279h 0.453543v -0.90171h 0.453543v 1.0426h 0.453543v 2.05703h 0.453543v -4.53673h 0.453543v
 5.66387h 0.453543v 0.450855h 0.453543v -4.53673h 0.453543v 1.74706h 0.453543v 0.253606h 0.453543v 5.91747h 0.453543v -1.8316h 0.453543v -2.00067h 0.453543v 5.15665h 0.453543v 0.676283h 0.453543v -5.46662h 0.453543v -0.704461h 0.453543v 6.5374h
 0.453543v 1.71888h 0.453543v -8.70714h 0.453543v 0.732639h 0.453543v 0.619926h 0.453543v 1.85978h 0.453543v 1.63435h 0.453543v -0.479033h 0.453543v 0.986245h 0.453543v -0.873532h 0.453543v 1.60617h 0.453543v 3.5223h 0.453543v -0.788996h 0.453543v
 -6.05836h 0.453543v 3.04327h 0.453543v 5.26937h 0.453543v -0.986245h 0.453543v -8.45353h 0.453543v 10.5669h 0.453543v -0.817175h 0.453543v -4.50855h 0.453543v 8.2281h 0.453543v -3.40959h 0.453543v -4.64944h 0.453543v 6.56558h 0.453543v -3.46595h
 0.453543v -2.36699h 0.453543v 2.42335h 0.453543v 4.7058h 0.453543v -1.91613h 0.453543v 5.43844h 0.453543v -3.38141h 0.453543v -0.112714h 0.453543v 0.986245h 0.453543v -0.225428h 0.453543v 0.90171h 0.453543v -1.49346h 0.453543v -1.0426h 0.453543v
 3.60684h 0.453543v 1.85978h 0.453543v 3.57866h 0.453543v -4.87487h 0.453543v -0.53539h 0.453543v 3.97316h 0.453543v -7.24186h 0.453543v 5.12848h 0.453543v -4.11405h 0.453543v 7.27004h 0.453543v -2.2261h 0.453543v 2.28245h 0.453543v -3.49413h
 0.453543v 3.71955h 0.453543v 2.25428h 0.453543v 0.169071h 0.453543v -4.64944h 0.453543v 1.94431h 0.453543v 4.7058h 0.453543v -2.84602h 0.453543v 3.6632h 0.453543v -0.338141h 0.453543v 0.619926h 0.453543v -4.59309h 0.453543v 3.12781h 0.453543v
 3.2687h 0.907087v -0.507212h 0.453543v 2.90238h 0.453543v -2.25428h 0.453543v 0.112714h 0.453543v 2.62059h 0.453543v -0.53539h 0.453543v -0.704461h 0.453543v 0.53539h 0.453543v -2.16974h 0.453543v 3.46595h 0.453543v -0.53539h 0.453543v 0.169071h
 0.453543v 1.0426h 0.453543v -4.93123h 0.453543v 2.53606h 0.453543v 2.28245h 0.453543v 0.253606h 0.453543v -5.80476h 0.453543v 7.01643h 0.453543v -4.14223h 0.453543v 4.3113h 0.453543v 1.21167h 0.453543v 0.591747h 0.453543v 1.15532h 0.453543v
 0.422677h 0.453543v -0.788996h 0.453543v -7.43911h 0.453543v 11.4404h 0.453543v 0.309963h 0.453543v -4.53673h 0.453543v 4.42401h 0.453543v -4.00134h 0.453543v 3.35323h 0.453543v 1.35257h 0.453543v -3.69138h 0.453543" fill="none" stroke="#000099"/>
<rect x="510.736" y="54.7007" width="56.6929" height="54.7007" fill="white"/>
<path d="M510.736,109.401h 56.6929" fill="none" stroke="#000099"/>
<path d="M567.429,109.401v -54.7007" fill="none" stroke="#000099"/>
<path d="M567.429,54.7007h -56.6929" fill="none" stroke="#000099"/>
<path d="M510.736,54.7007v 54.7007" fill="none" stroke="#000099"/>
<text x="529.292" y="66.0279" fill="#000099" font-size="12.0423" font-family="Helvetica">
hist
</text>
<path d="M510.736,68.3759h 56.6929" fill="none" stroke="#000099"/>
<text x="513.355" y="77.412" fill="#000099" font-size="6.05097" font-family="Helvetica">
Entries 
</text>
<text x="532.708" y="77.412" fill="#000099" font-size="6.05097" font-family="Helvetica">
          1e+07
</text>
<text x="513.355" y="91.073" fill="#000099" font-size="6.05097" font-family="Helvetica">
Mean  
</text>
<text x="558.322" y="91.073" fill="#000099" font-size="6.05097" font-family="Helvetica">
06
</text>
<text x="554.907" y="91.073" fill="#000099" font-size="6.05097" font-family="Times">
&#8722;
</text>
<text x="537.261" y="91.073" fill="#000099" font-size="6.05097" font-family="Helvetica">
5.061e
</text>
<text x="534.415" y="91.073" fill="#000099" font-size="6.05097" font-family="Times">
&#8722;
</text>
<text x="532.708" y="91.073" fill="#000099" font-size="6.05097" font-family="Helvetica">
 
</text>
<text x="513.355" y="104.165" fill="#000099" font-size="6.05097" font-family="Helvetica">
Integral 
</text>
<text x="545.23" y="104.734" fill="#000099" font-size="6.05097" font-family="Helvetica">
  1e+07
</text>
<rect x="510.736" y="54.7007" width="56.6929" height="54.7007" fill="white"/>
<path d="M510.736,109.401h 56.6929" fill="none" stroke="#000099"/>
<path d="M567.429,109.401v -54.7007" fill="none" stroke="#000099"/>
<path d="M567.429,54.7007h -56.6929" fill="none" stroke="#000099"/>
<path d="M510.736,54.7007v 54.7007" fill="none" stroke="#000099"/>
<text x="529.292" y="66.0279" fill="#000099" font-size="12.0423" font-family="Helvetica">
hist
</text>
<path d="M510.736,68.3759h 56.6929" fill="none" stroke="#000099"/>
<text x="513.355" y="77.412" fill="#000099" font-size="6.05097" font-family="Helvetica">
Entries 
</text>
<text x="532.708" y="77.412" fill="#000099" font-size="6.05097" font-family="Helvetica">
          1e+07
</text>
<text x="513.355" y="91.073" fill="#000099" font-size="6.05097" font-family="Helvetica">
Mean  
</text>
<text x="558.322" y="91.073" fill="#000099" font-size="6.05097" font-family="Helvetica">
06
</text>
<text x="554.907" y="91.073" fill="#000099" font-size="6.05097" font-family="Times">
&#8722;
</text>
<text x="537.261" y="91.073" fill="#000099" font-size="6.05097" font-family="Helvetica">
5.061e
</text>
<text x="534.415" y="91.073" fill="#000099" font-size="6.05097" font-family="Times">
&#8722;
</text>
<text x="532.708" y="91.073" fill="#000099" font-size="6.05097" font-family="Helvetica">
 
</text>
<text x="513.355" y="104.165" fill="#000099" font-size="6.05097" font-family="Helvetica">
Integral 
</text>
<text x="545.23" y="104.734" fill="#000099" font-size="6.05097" font-family="Helvetica">
  1e+07
</text>
<text x="256.643" y="43.8289" fill="black" font-size="35.6289" font-family="Helvetica">
title
</text>
<rect x="510.736" y="54.7007" width="56.6929" height="54.7007" fill="white"/>
<path d="M510.736,109.401h 56.6929" fill="none" stroke="#000099"/>
<path d="M567.429,109.401v -54.7007" fill="none" stroke="#000099"/>
<path d="M567.429,54.7007h -56.6929" fill="none" stroke="#000099"/>
<path d="M510.736,54.7007v 54.7007" fill="none" stroke="#000099"/>
<text x="529.292" y="66.0279" fill="#000099" font-size="12.0423" font-family="Helvetica">
hist
</text>
<path d="M510.736,68.3759h 56.6929" fill="none" stroke="#000099"/>
<text x="513.355" y="77.412" fill="#000099" font-size="6.05097" font-family="Helvetica">
Entries 
</text>
<text x="532.708" y="77.412" fill="#000099" font-size="6.05097" font-family="Helvetica">
          1e+07
</text>
<text x="513.355" y="91.073" fill="#000099" font-size="6.05097" font-family="Helvetica">
Mean  
</text>
<text x="558.322" y="91.073" fill="#000099" font-size="6.05097" font-family="Helvetica">
06
</text>
<text x="554.907" y="91.073" fill="#000099" font-size="6.05097" font-family="Times">
&#8722;
</text>
<text x="537.261" y="91.073" fill="#000099" font-size="6.05097" font-family="Helvetica">
5.061e
</text>
<text x="534.415" y="91.073" fill="#000099" font-size="6.05097" font-family="Times">
&#8722;
</text>
<text x="532.708" y="91.073" fill="#000099" font-size="6.05097" font-family="Helvetica">
 
</text>
<text x="513.355" y="104.165" fill="#000099" font-size="6.05097" font-family="Helvetica">
Integral 
</text>
<text x="545.23" y="104.734" fill="#000099" font-size="6.05097" font-family="Helvetica">
  1e+07
</text>
<text x="256.643" y="43.8289" fill="black" font-size="35.6289" font-family="Helvetica">
title
</text></svg>
